<?xml version="1.0" encoding="UTF-8"?>
<svg version="1.1" xmlns="http://www.w3.org/2000/svg" width="1063" height="999">
<path d="M0 0 C2.28100586 0.04101562 2.28100586 0.04101562 5 1 C6.45348105 3.48798644 7.48145066 5.68004744 8.50390625 8.34375 C8.81943451 9.11826004 9.13496277 9.89277008 9.46005249 10.69075012 C10.51265711 13.28680357 11.53713289 15.89308118 12.5625 18.5 C13.30543528 20.34607724 14.05035067 22.19135869 14.79711914 24.03588867 C16.38898055 27.97507007 17.97015757 31.91831016 19.54394531 35.86474609 C21.9743387 41.95017315 24.44604553 48.01817113 26.9296875 54.08203125 C27.34053085 55.08532471 27.75137421 56.08861816 28.17466736 57.12231445 C29.00914892 59.15996005 29.84369807 61.19757798 30.67831421 63.23516846 C32.79509599 68.40838388 34.90318275 73.58513827 37.01171875 78.76171875 C41.74816051 90.38676539 46.49626202 102.00701661 51.25 113.625 C51.62017242 114.52976074 51.99034485 115.43452148 52.37173462 116.36669922 C59.25418964 133.18742456 66.15016081 150.00259436 73.05126953 166.81567383 C77.03637572 176.52453506 81.01937863 186.23425909 85.00256348 195.94390869 C86.00430068 198.38578799 87.00605123 200.82766182 88.0078125 203.26953125 C88.33821533 204.07491333 88.66861816 204.88029541 89.0090332 205.71008301 C90.988481 210.53495681 92.96838582 215.35964277 94.94866943 220.18417358 C102.30993831 238.11836429 109.66194011 256.0562993 117 274 C122.58574232 287.65840429 128.17470546 301.31547626 133.77416992 314.96826172 C134.45462242 316.62739467 135.13496498 318.28657272 135.81518555 319.94580078 C139.51706902 328.97501167 143.23269575 337.99783785 147 347 C149.89486707 341.34652335 152.50097884 335.64034285 154.94921875 329.78125 C155.31889267 328.90288986 155.68856659 328.02452972 156.06944275 327.11955261 C156.86371656 325.23158602 157.6567983 323.34311755 158.4487915 321.45419312 C160.14214354 317.41572165 161.84145033 313.37976485 163.54046631 309.34367371 C164.41497631 307.26616631 165.28920125 305.1885389 166.16314697 303.11079407 C170.29364094 293.29302935 174.45471647 283.48841639 178.625 273.6875 C179.31202871 272.07227285 179.99904045 270.45703848 180.68603516 268.84179688 C182.06798379 265.59284561 183.45019287 262.34400528 184.83251953 259.09521484 C187.9033805 251.87727387 190.97098099 244.65794716 194.03881836 237.4387207 C197.35898372 229.62571669 200.67952857 221.81287394 204 214 C225.78 214 247.56 214 270 214 C271.05775406 218.23101625 271.00395492 218.7793626 269.38305664 222.52246094 C268.99900162 223.42478455 268.61494659 224.32710815 268.21925354 225.2567749 C267.78725143 226.23938293 267.35524933 227.22199097 266.91015625 228.234375 C266.24070229 229.79409027 266.24070229 229.79409027 265.557724 231.38531494 C264.06989684 234.84487784 262.56611457 238.29727288 261.0625 241.75 C260.01123883 244.187022 258.96094875 246.62443732 257.91210938 249.0625 C255.71718807 254.16085034 253.515375 259.25617062 251.30908203 264.34960938 C246.66908867 275.06427776 242.07846498 285.80009136 237.48397827 296.53433228 C235.9890276 300.02562483 234.49246544 303.51622217 232.99536133 307.0065918 C228.01178549 318.625947 223.03636744 330.24871588 218.078125 341.87890625 C217.35051216 343.58436615 217.35051216 343.58436615 216.60820007 345.32427979 C214.2031723 350.96490085 211.80673036 356.60890922 209.42700195 362.26025391 C205.22067482 372.23050179 200.96799011 382.16187505 196.42129517 391.98258972 C194.44758768 396.25360263 192.51248848 400.54160739 190.57971191 404.83126831 C189.66547446 406.83002546 188.73182671 408.82003989 187.77722168 410.79983521 C181.71770611 422.53507743 181.71770611 422.53507743 182.20823669 435.21327209 C183.31034509 437.89446152 184.58366408 440.44535697 185.95925903 442.99597168 C187.77237631 446.48727113 189.14455357 450.15823884 190.6015625 453.80859375 C191.24934152 455.3708704 191.90038173 456.93179826 192.55444336 458.49145508 C194.7666967 463.77494577 196.96893449 469.06255706 199.16796875 474.3515625 C199.56023148 475.29471817 199.9524942 476.23787384 200.35664368 477.20960999 C204.93228738 488.22400422 209.4366363 499.2673855 213.9375 510.3125 C214.35428009 511.3350589 214.77106018 512.3576178 215.20046997 513.41116333 C216.88439396 517.54268765 218.56821298 521.67425467 220.25163269 525.8059845 C223.91040652 534.78454903 227.57984585 543.75872682 231.25292969 552.73144531 C232.77094416 556.43972187 234.28720681 560.14870601 235.80175781 563.85839844 C238.7637717 571.11112045 241.72583231 578.36329608 244.74702454 585.59161377 C245.56901224 587.55881853 246.3875016 589.52743926 247.20483398 591.49658203 C248.15999929 593.79382302 249.12249593 596.08803631 250.09399414 598.37841797 C250.49996826 599.3582666 250.90594238 600.33811523 251.32421875 601.34765625 C251.67572998 602.18304932 252.02724121 603.01844238 252.3894043 603.87915039 C253 606 253 606 252 609 C230.22 609 208.44 609 186 609 C182.86745144 602.10839317 179.85276758 595.31337199 177.13671875 588.26953125 C176.61250336 586.92234512 176.61250336 586.92234512 176.07769775 585.54794312 C175.33113934 583.62899456 174.58585634 581.70954939 173.84176636 579.78964233 C171.86564828 574.69273837 169.87801288 569.60033055 167.890625 564.5078125 C167.48645859 563.47176376 167.08229218 562.43571503 166.6658783 561.36827087 C162.81565369 551.50829475 158.920627 541.66646867 154.99502563 531.83627319 C154.2910448 530.07301989 153.58805904 528.30936897 152.88607788 526.5453186 C151.91503199 524.10594671 150.94054481 521.66798173 149.96484375 519.23046875 C149.67716125 518.50669037 149.38947876 517.78291199 149.09307861 517.03720093 C147.94749172 513.77568449 147.94749172 513.77568449 146 511 C137.38601289 530.72610664 128.93136474 550.51897401 120.50534058 570.32598877 C113.52769388 586.72774547 106.5287693 603.12008732 99.5 619.5 C92.1392523 636.65504942 84.80945185 653.82303294 77.5 671 C69.76728717 689.17161617 62.00942306 707.33216044 54.22109985 725.48001099 C49.08141238 737.45699307 43.95642325 749.44005846 38.85546875 761.43359375 C38.3396524 762.64612823 37.82383606 763.85866272 37.29238892 765.10794067 C34.79699776 770.9747192 32.30339114 776.842247 29.8125 782.7109375 C24.65158264 794.8578071 19.41232012 806.96290006 14 819 C12.68 819 11.36 819 10 819 C-1.57473914 792.4361937 -13.1021549 765.85445288 -24.4375 739.1875 C-24.90851135 738.07942993 -25.37952271 736.97135986 -25.86480713 735.82971191 C-26.33883972 734.71447144 -26.81287231 733.59923096 -27.30126953 732.45019531 C-28.2633228 730.18683895 -29.22539969 727.92349262 -30.1875 725.66015625 C-30.90291458 723.97706863 -30.90291458 723.97706863 -31.63278198 722.25997925 C-37.04301371 709.53774912 -42.4886232 696.8307161 -47.9375 684.125 C-48.43418182 682.96672699 -48.93086365 681.80845398 -49.44259644 680.61508179 C-51.95599791 674.75397476 -54.46982515 668.89305048 -56.98388672 663.03222656 C-61.49213986 652.52190442 -65.99642065 642.00987986 -70.50100708 631.49798584 C-73.00050923 625.6652544 -75.50026756 619.83263275 -78 614 C-79.00000123 611.66666719 -80.00000123 609.33333386 -81 607 C-81.495 605.845 -81.99 604.69 -82.5 603.5 C-86.99999999 593.00000002 -86.99999999 593.00000002 -88.49963379 589.50082397 C-89.50082503 587.16473143 -90.50204579 584.82865154 -91.5032959 582.49258423 C-93.98531058 576.70156951 -96.46683163 570.91034431 -98.94726562 565.11865234 C-103.66120041 554.11333476 -108.38055315 543.11041022 -113.1159668 532.11431885 C-115.09500661 527.51868929 -117.07171658 522.92205874 -119.04789734 518.32519913 C-120.40234338 515.17508713 -121.75817766 512.02558749 -123.1171875 508.87744141 C-124.6126003 505.41185945 -126.10365113 501.94443188 -127.59375 498.4765625 C-128.0424646 497.43988434 -128.4911792 496.40320618 -128.95349121 495.33511353 C-129.35749146 494.39259735 -129.7614917 493.45008118 -130.17773438 492.47900391 C-130.53170288 491.65751862 -130.88567139 490.83603333 -131.25036621 489.98965454 C-132 488 -132 488 -132 486 C-132.66 486 -133.32 486 -134 486 C-134.10151367 486.65935547 -134.20302734 487.31871094 -134.30761719 487.99804688 C-135.19204047 491.83262679 -136.61475003 495.39012845 -138.078125 499.03125 C-138.39698669 499.8346431 -138.71584839 500.63803619 -139.04437256 501.46577454 C-140.10895995 504.14544176 -141.17949002 506.8226939 -142.25 509.5 C-143.00432562 511.39525958 -143.75822249 513.29068984 -144.51171875 515.1862793 C-146.13692503 519.27380993 -147.76423202 523.3604966 -149.39257812 527.44677734 C-152.10088957 534.24791877 -154.79364941 541.05516681 -157.484375 547.86328125 C-158.41110442 550.20704248 -159.33786215 552.55079251 -160.26464844 554.89453125 C-161.6149924 558.309425 -162.96518273 561.72437859 -164.3145752 565.13964844 C-165.58344097 568.35011575 -166.85404369 571.55989105 -168.125 574.76953125 C-168.48398376 575.67890945 -168.84296753 576.58828766 -169.21282959 577.52522278 C-173.38593991 588.05465053 -177.71059818 598.51479555 -182 609 C-203.78 609 -225.56 609 -248 609 C-249.22298312 604.10806753 -247.92944952 601.60296391 -246.01171875 597.1875 C-245.51755714 596.01173149 -245.51755714 596.01173149 -245.01341248 594.81221008 C-244.29428636 593.104771 -243.569962 591.39951426 -242.84112549 589.69619751 C-241.26393504 586.01006453 -239.71143798 582.31368382 -238.15679932 578.61799622 C-237.33925904 576.6756863 -236.52034652 574.73395347 -235.70013428 572.79277039 C-231.80366087 563.56685889 -228.00773233 554.30131257 -224.2303772 545.02612305 C-222.35765616 540.428725 -220.47995598 535.83336409 -218.6015625 531.23828125 C-218.22483902 530.3166922 -217.84811554 529.39510315 -217.4599762 528.44558716 C-213.16727812 517.95245215 -208.8337657 507.47622339 -204.5 497 C-197.36958119 479.7618001 -190.28130978 462.50678665 -183.22460938 445.23828125 C-182.87936218 444.39394531 -182.53411499 443.54960938 -182.17840576 442.6796875 C-181.49740783 441.01123247 -180.81837757 439.34197282 -180.14141846 437.671875 C-178.28826137 433.10778512 -176.39118931 428.56713372 -174.44238281 424.04296875 C-174.02066803 423.05018921 -173.59895325 422.05740967 -173.16445923 421.0345459 C-172.35038197 419.11992553 -171.52474883 417.2101642 -170.68588257 415.30627441 C-167.67221459 408.16474278 -167.99243714 404.41526403 -170.84399414 397.25048828 C-171.65093058 395.35419507 -172.46516827 393.46099864 -173.28515625 391.5703125 C-173.72858368 390.53342285 -174.17201111 389.4965332 -174.62887573 388.42822266 C-176.10053981 384.99111478 -177.58152153 381.55810359 -179.0625 378.125 C-180.1048589 375.69540894 -181.14667893 373.26559414 -182.18774414 370.83544922 C-184.36378945 365.75841517 -186.54413964 360.68325045 -188.72753906 355.609375 C-191.83441441 348.38894184 -194.93048882 341.16391033 -198.0234375 333.9375 C-201.97992514 324.69526258 -205.93919701 315.45422778 -209.90234375 306.21484375 C-210.39728836 305.06096664 -210.89223297 303.90708954 -211.4021759 302.71824646 C-212.93474111 299.14547927 -214.46736887 295.57273891 -216 292 C-219.54562158 283.73453759 -223.0908752 275.46891766 -226.63499737 267.20281219 C-228.41734481 263.04587889 -230.20063657 258.88935151 -231.98413086 254.73291016 C-233.81813112 250.45844702 -235.64725926 246.18195203 -237.47265625 241.90380859 C-239.12896103 238.02357024 -240.80452739 234.15258522 -242.49609375 230.28759766 C-243.24747472 228.55244301 -243.9987814 226.81725619 -244.75 225.08203125 C-245.27170776 223.90806038 -245.27170776 223.90806038 -245.80395508 222.71037292 C-248.11306604 217.33919813 -248.11306604 217.33919813 -247 214 C-225.22 214 -203.44 214 -181 214 C-173.1340603 230.85558508 -173.1340603 230.85558508 -170.625 236.87890625 C-170.34202057 237.5551152 -170.05904114 238.23132416 -169.76748657 238.92802429 C-169.15913122 240.38212621 -168.55202227 241.83675017 -167.94610596 243.29187012 C-166.25074092 247.36070246 -164.54237879 251.42408483 -162.8359375 255.48828125 C-162.46463715 256.3731723 -162.09333679 257.25806335 -161.71078491 258.16976929 C-157.15370313 269.02567329 -152.57407406 279.87202742 -147.97456741 290.71001911 C-146.66968389 293.78490606 -145.36657741 296.86051711 -144.06787109 299.9380188 C-142.604507 303.40334626 -141.13503448 306.86602144 -139.6640625 310.328125 C-139.22204498 311.37844406 -138.78002747 312.42876312 -138.32461548 313.51091003 C-137.71074478 314.9503875 -137.71074478 314.9503875 -137.08447266 316.41894531 C-136.72858063 317.2591925 -136.3726886 318.0994397 -136.00601196 318.96514893 C-135.05859617 321.15506454 -135.05859617 321.15506454 -133 323 C-123.65069689 300.3910447 -114.30807025 277.77953743 -105.03314209 255.13995361 C-99.58928768 241.85354111 -94.11215734 228.58108103 -88.625 215.3125 C-82.00894847 199.31368449 -75.43168671 183.29952433 -68.88580322 167.2718811 C-62.72943631 152.20021527 -56.52541646 137.14868308 -50.30224609 122.10449219 C-44.50279814 108.08265271 -38.73717783 94.04742736 -33 80 C-26.59559799 64.31960257 -20.1559901 48.65407279 -13.6875 33 C-13.2845874 32.02482422 -12.8816748 31.04964844 -12.46655273 30.04492188 C-8.32548012 20.02391786 -4.18028645 10.00472397 0 0 Z M2 144 C-2.66567866 153.6489166 -6.44853192 163.64221074 -10.32470703 173.62585449 C-16.83936423 190.39756318 -23.43331672 207.13650714 -30.12109375 223.83984375 C-30.42582674 224.60099298 -30.73055973 225.36214222 -31.04452705 226.14635658 C-34.07155795 233.70546199 -37.10301952 241.26278224 -40.13870811 248.81841469 C-46.07768479 263.60313016 -51.95735019 278.40596199 -57.6822567 293.27497673 C-63.77284375 309.085047 -70.08327867 324.80622386 -76.39569092 340.52874756 C-85.93695547 364.24582198 -85.93695547 364.24582198 -95.35546875 388.01171875 C-95.77775505 389.07819389 -95.77775505 389.07819389 -96.20857239 390.16621399 C-97.55938132 393.48455537 -97.55938132 393.48455537 -98 397 C-32 397 34 397 102 397 C99.70124483 389.18244919 99.70124483 389.18244919 96.96972656 381.60253906 C96.59732346 380.66330093 96.22492035 379.72406281 95.8412323 378.75636292 C95.44503189 377.7694194 95.04883148 376.78247589 94.640625 375.765625 C94.00940483 374.17831825 94.00940483 374.17831825 93.36543274 372.5589447 C91.99740956 369.12110729 90.62365835 365.68558914 89.25 362.25 C88.28981372 359.8391355 87.33010168 357.42808207 86.37084961 355.0168457 C84.45770476 350.20865053 82.54283192 345.40115007 80.62646484 340.59423828 C77.25427898 332.13222889 73.90452884 323.66145568 70.5625 315.1875 C69.97721865 313.70458783 69.39193212 312.2216777 68.80664062 310.73876953 C63.74730336 297.91526578 58.71134629 285.08258355 53.67346191 272.25064087 C44.34447972 248.48917681 34.97800335 224.74295004 25.57154846 201.01205444 C21.24554591 190.09818083 16.92538546 179.18199578 12.60507202 168.26586914 C10.56632227 163.11467464 8.5272959 157.96358965 6.48828125 152.8125 C5.80639509 151.0898443 5.12451017 149.36718811 4.44262695 147.64453125 C3.96656006 146.44183594 3.49049316 145.23914063 3 144 C2.67 144 2.34 144 2 144 Z M-78 455 C-76.14520788 461.18264041 -74.39248154 466.84582356 -71.8046875 472.6640625 C-71.50045868 473.3613446 -71.19622986 474.05862671 -70.88278198 474.77703857 C-70.22762683 476.27728717 -69.56997901 477.77644933 -68.91003418 479.27459717 C-67.09717813 483.39131338 -65.30426181 487.51672979 -63.5078125 491.640625 C-63.13390381 492.49751923 -62.75999512 493.35441345 -62.37475586 494.23727417 C-58.44172472 503.25857449 -54.59074591 512.31411241 -50.75 521.375 C-50.04676364 523.03273665 -49.34347535 524.69045127 -48.64013672 526.34814453 C-47.5571698 528.90077521 -46.47429967 531.45344669 -45.39175415 534.0062561 C-41.36163203 543.5089124 -37.31860308 553.00606922 -33.27563477 562.50326538 C-31.15723323 567.47983656 -29.03958354 572.45672765 -26.921875 577.43359375 C-24.52047959 583.07711226 -22.11900926 588.72059871 -19.71679688 594.36376953 C-9.42068896 618.55190604 0.81671063 642.76414454 11 667 C11.66 667 12.32 667 13 667 C24.38931716 640.30010155 35.76784594 613.59605905 47.04556274 586.8487854 C52.50948862 573.89024422 57.99337008 560.94045182 63.5 548 C70.46071512 531.64150055 77.38776734 515.26894743 84.29418945 498.88745117 C87.73128872 490.73577381 91.17079511 482.58536323 94.64453125 474.44921875 C95.17403629 473.20688784 95.70349801 471.96453846 96.23291016 470.72216797 C97.17096983 468.52328556 98.11184144 466.3255996 99.05615234 464.12939453 C99.45398926 463.19595215 99.85182617 462.26250977 100.26171875 461.30078125 C100.77158325 460.11222534 100.77158325 460.11222534 101.29174805 458.8996582 C102.11644708 457.02556697 102.11644708 457.02556697 102 455 C42.6 455 -16.8 455 -78 455 Z " fill="#FEFEFE" transform="translate(537,120)"/>
</svg>
